<svg width="42" height="42" viewBox="0 0 42 42" fill="none" xmlns="http://www.w3.org/2000/svg">
<path d="M2.03666 29.6968H25.6597C25.8115 29.6969 25.9618 29.6671 26.102 29.6091C26.2422 29.551 26.3696 29.4659 26.4769 29.3586C26.5842 29.2513 26.6693 29.1239 26.7274 28.9837C26.7854 28.8435 26.8152 28.6932 26.8151 28.5415V25.089C26.8152 24.9373 26.7854 24.787 26.7274 24.6468C26.6693 24.5065 26.5842 24.3791 26.4769 24.2718C26.3696 24.1645 26.2422 24.0794 26.102 24.0214C25.9618 23.9634 25.8115 23.9336 25.6597 23.9337H2.03666C1.88491 23.9336 1.73462 23.9634 1.5944 24.0214C1.45418 24.0794 1.32677 24.1645 1.21947 24.2718C1.11216 24.3791 1.02707 24.5065 0.96905 24.6468C0.911032 24.787 0.88123 24.9373 0.881348 25.089V28.5415C0.88123 28.6932 0.911032 28.8435 0.96905 28.9837C1.02707 29.1239 1.11216 29.2513 1.21947 29.3586C1.32677 29.4659 1.45418 29.551 1.5944 29.6091C1.73462 29.6671 1.88491 29.6969 2.03666 29.6968ZM2.03666 6.64458H25.6597C25.8115 6.6447 25.9618 6.61489 26.102 6.55688C26.2422 6.49886 26.3696 6.41376 26.4769 6.30646C26.5842 6.19915 26.6693 6.07175 26.7274 5.93152C26.7854 5.7913 26.8152 5.64102 26.8151 5.48927V2.03684C26.8152 1.88509 26.7854 1.73481 26.7274 1.59458C26.6693 1.45436 26.5842 1.32695 26.4769 1.21965C26.3696 1.11235 26.2422 1.02725 26.102 0.969233C25.9618 0.911215 25.8115 0.881413 25.6597 0.881531H2.03666C1.88491 0.881413 1.73462 0.911215 1.5944 0.969233C1.45418 1.02725 1.32677 1.11235 1.21947 1.21965C1.11216 1.32695 1.02707 1.45436 0.96905 1.59458C0.911032 1.73481 0.88123 1.88509 0.881348 2.03684V5.48927C0.88123 5.64102 0.911032 5.7913 0.96905 5.93152C1.02707 6.07175 1.11216 6.19915 1.21947 6.30646C1.32677 6.41376 1.45418 6.49886 1.5944 6.55688C1.73462 6.61489 1.88491 6.6447 2.03666 6.64458ZM39.7819 12.4076H2.32211C1.94 12.4076 1.57353 12.5594 1.30334 12.8296C1.03314 13.0998 0.881348 13.4663 0.881348 13.8484V16.7299C0.881348 17.112 1.03314 17.4785 1.30334 17.7487C1.57353 18.0189 1.94 18.1707 2.32211 18.1707H39.7819C40.164 18.1707 40.5305 18.0189 40.8007 17.7487C41.0709 17.4785 41.2227 17.112 41.2227 16.7299V13.8484C41.2227 13.4663 41.0709 13.0998 40.8007 12.8296C40.5305 12.5594 40.164 12.4076 39.7819 12.4076ZM39.7819 35.4598H2.32211C1.94 35.4598 1.57353 35.6116 1.30334 35.8818C1.03314 36.152 0.881348 36.5185 0.881348 36.9006V39.7821C0.881348 40.1642 1.03314 40.5307 1.30334 40.8009C1.57353 41.0711 1.94 41.2229 2.32211 41.2229H39.7819C40.164 41.2229 40.5305 41.0711 40.8007 40.8009C41.0709 40.5307 41.2227 40.1642 41.2227 39.7821V36.9006C41.2227 36.5185 41.0709 36.152 40.8007 35.8818C40.5305 35.6116 40.164 35.4598 39.7819 35.4598Z" fill="white"/>
</svg>
